<svg xmlns="http://www.w3.org/2000/svg" xmlns:xlink="http://www.w3.org/1999/xlink" width="632" zoomAndPan="magnify" viewBox="0 0 474 400.499988" height="534" preserveAspectRatio="xMidYMid meet" version="1.2"><defs><clipPath id="4bc8f8cbea"><path d="M 149 74 L 473.703125 74 L 473.703125 399 L 149 399 Z M 149 74 "/></clipPath><filter x="0%" y="0%" width="100%" filterUnits="objectBoundingBox" id="669cad3180" height="100%"><feColorMatrix values="0 0 0 0 1 0 0 0 0 1 0 0 0 0 1 0 0 0 1 0" type="matrix" in="SourceGraphic"/></filter><clipPath id="33fb346a1f"><path d="M 9 9 L 316 9 L 316 316 L 9 316 Z M 9 9 "/></clipPath><clipPath id="ebff4b60df"><path d="M 0.703125 218.714844 L 219.1875 0.226562 L 324.921875 105.960938 L 106.433594 324.449219 Z M 0.703125 218.714844 "/></clipPath><clipPath id="61464b195e"><path d="M 15.53125 203.882812 L 204.023438 15.390625 C 207.957031 11.457031 213.292969 9.25 218.855469 9.25 C 224.417969 9.25 229.753906 11.457031 233.6875 15.390625 L 309.757812 91.464844 C 313.691406 95.398438 315.902344 100.730469 315.902344 106.292969 C 315.902344 111.855469 313.691406 117.191406 309.757812 121.125 L 121.265625 309.617188 C 117.332031 313.550781 111.996094 315.761719 106.433594 315.761719 C 100.871094 315.761719 95.539062 313.550781 91.605469 309.617188 L 15.53125 233.546875 C 11.597656 229.613281 9.390625 224.277344 9.390625 218.714844 C 9.390625 213.152344 11.597656 207.816406 15.53125 203.882812 Z M 15.53125 203.882812 "/></clipPath><clipPath id="24b4342681"><rect x="0" width="325" y="0" height="325"/></clipPath><clipPath id="a105896d3d"><path d="M 8 9 L 317 9 L 317 317 L 8 317 Z M 8 9 "/></clipPath><clipPath id="44197e94a5"><path d="M 0.277344 107.710938 L 107.429688 0.558594 L 325.496094 218.625 L 218.347656 325.777344 Z M 0.277344 107.710938 "/></clipPath><clipPath id="006a4558ba"><path d="M 15.109375 92.878906 L 92.597656 15.390625 C 96.53125 11.457031 101.867188 9.246094 107.429688 9.246094 C 112.992188 9.246094 118.328125 11.457031 122.261719 15.390625 L 310.414062 203.546875 C 314.347656 207.476562 316.558594 212.8125 316.558594 218.375 C 316.558594 223.9375 314.347656 229.273438 310.414062 233.207031 L 232.925781 310.695312 C 228.992188 314.628906 223.660156 316.839844 218.09375 316.839844 C 212.53125 316.839844 207.199219 314.628906 203.265625 310.695312 L 15.109375 122.539062 C 11.175781 118.605469 8.964844 113.273438 8.964844 107.710938 C 8.964844 102.148438 11.175781 96.8125 15.109375 92.878906 Z M 15.109375 92.878906 "/></clipPath><clipPath id="ff432aacd7"><rect x="0" width="326" y="0" height="326"/></clipPath><clipPath id="85cb57c8a8"><path d="M 0.296875 0 L 134 0 L 134 134 L 0.296875 134 Z M 0.296875 0 "/></clipPath><clipPath id="d62ab1e647"><path d="M 8 8 L 125 8 L 125 125 L 8 125 Z M 8 8 "/></clipPath><clipPath id="b88fca5f5a"><path d="M 0.296875 66.144531 L 66.441406 -0.00390625 L 133.363281 66.917969 L 67.21875 133.0625 Z M 0.296875 66.144531 "/></clipPath><clipPath id="568d15125a"><path d="M 15.128906 51.3125 L 51.609375 14.828125 C 55.542969 10.894531 60.878906 8.683594 66.441406 8.683594 C 72.003906 8.683594 77.339844 10.894531 81.273438 14.828125 L 118.417969 51.972656 C 122.351562 55.90625 124.5625 61.242188 124.5625 66.804688 C 124.5625 72.367188 122.351562 77.703125 118.417969 81.636719 L 81.933594 118.121094 C 78 122.054688 72.667969 124.261719 67.105469 124.261719 C 61.542969 124.261719 56.207031 122.054688 52.273438 118.121094 L 15.128906 80.972656 C 11.195312 77.039062 8.984375 71.707031 8.984375 66.144531 C 8.984375 60.582031 11.195312 55.246094 15.128906 51.3125 Z M 15.128906 51.3125 "/></clipPath><clipPath id="96329fada4"><rect x="0" width="134" y="0" height="134"/></clipPath></defs><g id="ac7be98dee"><g clip-rule="nonzero" clip-path="url(#4bc8f8cbea)"><g mask="url(#c8faf8032b)" transform="matrix(1,0,0,1,149,74)"><g clip-path="url(#24b4342681)"><g clip-rule="nonzero" clip-path="url(#33fb346a1f)"><g clip-rule="nonzero" clip-path="url(#ebff4b60df)"><g clip-rule="nonzero" clip-path="url(#61464b195e)"><path style=" stroke:none;fill-rule:nonzero;fill:#fbfaff;fill-opacity:1;" d="M 0.703125 218.714844 L 218.777344 0.640625 L 324.507812 106.375 L 106.433594 324.449219 Z M 0.703125 218.714844 "/></g></g></g></g><mask id="c8faf8032b"><g filter="url(#669cad3180)"><rect x="0" width="474" y="0" height="400.499988" style="fill:#000000;fill-opacity:0.15;stroke:none;"/></g></mask></g></g><g mask="url(#6ca2687ad5)" transform="matrix(1,0,0,1,38,74)"><g clip-path="url(#ff432aacd7)"><g clip-rule="nonzero" clip-path="url(#a105896d3d)"><g clip-rule="nonzero" clip-path="url(#44197e94a5)"><g clip-rule="nonzero" clip-path="url(#006a4558ba)"><path style=" stroke:none;fill-rule:nonzero;fill:#fbfaff;fill-opacity:1;" d="M 0.277344 107.710938 L 107.429688 0.558594 L 325.078125 218.207031 L 217.925781 325.359375 Z M 0.277344 107.710938 "/></g></g></g></g><mask id="6ca2687ad5"><g filter="url(#669cad3180)"><rect x="0" width="474" y="0" height="400.499988" style="fill:#000000;fill-opacity:0.15;stroke:none;"/></g></mask></g><g clip-rule="nonzero" clip-path="url(#85cb57c8a8)"><g mask="url(#3a58e258b5)" transform="matrix(1,0,0,1,0.000000000000000056,0)"><g clip-path="url(#96329fada4)"><g clip-rule="nonzero" clip-path="url(#d62ab1e647)"><g clip-rule="nonzero" clip-path="url(#b88fca5f5a)"><g clip-rule="nonzero" clip-path="url(#568d15125a)"><path style=" stroke:none;fill-rule:nonzero;fill:#fbfaff;fill-opacity:1;" d="M 0.296875 66.144531 L 66.441406 -0.00390625 L 133.363281 66.917969 L 67.21875 133.0625 Z M 0.296875 66.144531 "/></g></g></g></g><mask id="3a58e258b5"><g filter="url(#669cad3180)"><rect x="0" width="474" y="0" height="400.499988" style="fill:#000000;fill-opacity:0.15;stroke:none;"/></g></mask></g></g></g></svg>